Coordinates
version=1
nRows=17
nColumns=36
inDegrees=yes

Units are S.I. units (second, meters, Newtons, ...)
If the header above contains a line with 'inDegrees', this indicates whether rotational values are in degrees (yes) or radians (no).

endheader
time	pelvis_tilt	pelvis_list	pelvis_rotation	pelvis_tx	pelvis_ty	pelvis_tz	hip_flexion_r	hip_adduction_r	hip_rotation_r	knee_angle_r	knee_angle_r_beta	ankle_angle_r	subtalar_angle_r	mtp_angle_r	hip_flexion_l	hip_adduction_l	hip_rotation_l	knee_angle_l	knee_angle_l_beta	ankle_angle_l	subtalar_angle_l	mtp_angle_l	lumbar_extension	lumbar_bending	lumbar_rotation	arm_flex_r	arm_add_r	arm_rot_r	elbow_flex_r	pro_sup_r	arm_flex_l	arm_add_l	arm_rot_l	elbow_flex_l	pro_sup_l
      2.96666670	      1.22065258	      1.76081612	      4.29626554	     -0.00632774	      0.80089253	      0.06849029	     -0.21239718	     -5.38750635	     -9.17365232	      0.66088241	      0.01153457	      4.16547527	      1.32131568	     -7.49999987	      0.38083291	     -4.01355304	     -7.55772496	      0.74098433	      0.01293262	      2.99957687	     -0.64751869	     -7.49999987	      0.76280839	     -0.85596373	     -0.14488343	     66.31767637	     18.09423043	     66.33383221	    119.11706797	    103.39416318	     44.26974828	     19.24629923	     52.84351803	    140.92132991	     89.02753838
      2.98333330	      1.26308516	      1.77777950	      4.16876442	     -0.00797574	      0.79909433	      0.06909995	     -0.27483278	     -5.43107695	     -9.01979919	      0.63742239	      0.01112512	      4.41909221	      1.25828904	     -7.49999987	      0.36330030	     -3.95439086	     -7.89627525	      0.76131774	      0.01328750	      2.97390902	     -0.57113505	     -7.49999987	      0.73228765	     -0.80200694	     -0.09036844	     66.39944926	     18.22129421	     66.34179034	    119.29115851	    103.64134067	     44.17034570	     19.73337124	     52.83931081	    141.54845893	     88.33961631
      3.00000000	      1.23375034	      1.84521880	      4.14740179	     -0.00645995	      0.80142967	      0.06880263	     -0.32636680	     -5.54218994	     -9.04180272	      0.62758290	      0.01095339	      4.85973232	      1.71397750	     -7.49999987	      0.41700105	     -3.85919616	     -7.88365122	      0.76791282	      0.01340261	      2.54672170	     -0.81567265	     -7.49999987	      0.82393462	     -0.87441603	     -0.01700202	     66.30745507	     18.32473467	     66.49332265	    119.50435319	    103.72388807	     44.00467669	     20.27701897	     53.84963708	    142.88283504	     88.94045337
      3.01666670	      1.23107394	      1.93253421	      4.05129190	     -0.00675963	      0.80214311	      0.06859615	     -0.36925775	     -5.67951977	     -8.97018175	      0.60964228	      0.01064027	      5.18233709	      1.97155137	     -7.49999987	      0.41635961	     -3.74368205	     -8.13390440	      0.78744781	      0.01374356	      2.29085738	     -0.80300302	     -7.49999987	      0.87189430	     -0.93557192	      0.04744785	     66.11928080	     18.45363693	     66.81258828	    119.81364841	    103.87029315	     44.01444055	     20.73953327	     54.71695423	    144.05318949	     89.64313856
      3.03333330	      1.34019023	      1.97988283	      3.94405963	     -0.00514321	      0.80202210	      0.06840639	     -0.57284795	     -5.73373305	     -8.86912241	      0.60661122	      0.01058736	      5.35470298	      2.20046190	     -7.49999987	      0.26312541	     -3.69575583	     -8.62538660	      0.79266864	      0.01383468	      2.18194156	     -0.43888999	     -7.49999987	      0.85560773	     -0.97053245	      0.07289214	     65.86981845	     18.48603245	     66.85072266	    119.86691804	    103.97744640	     43.92076537	     20.86728545	     54.11833098	    144.93579231	     89.09708130
      3.05000000	      1.32250869	      2.03095418	      3.91022446	     -0.00403177	      0.80389895	      0.06827731	     -0.68549299	     -5.81781196	     -8.97424494	      0.59543983	      0.01039239	      5.22885869	      2.19283841	     -7.49999987	      0.23159247	     -3.61797735	     -8.51070695	      0.78374461	      0.01367892	      1.76211326	     -0.85394042	     -7.49999987	      0.88747084	     -1.04437230	     -0.24427387	     65.59432014	     18.61410746	     67.07422462	    119.89574152	    104.18185120	     44.08544200	     20.83257016	     54.23701007	    145.85501769	     90.47597472
      3.06666670	      1.33826374	      2.03405901	      3.79956589	     -0.00424953	      0.80161463	      0.06824450	     -0.72971163	     -5.85679492	     -8.80046582	      0.59961413	      0.01046524	      5.25808398	      2.13305452	     -7.49999987	      0.12940126	     -3.58129760	     -8.81329096	      0.79607558	      0.01389414	      1.77878231	     -0.79326636	     -7.49999987	      0.95291019	     -1.08293332	     -0.03228819	     65.45385757	     18.60424605	     67.21337668	    120.28600948	    104.84533616	     44.22781628	     21.54165493	     55.43599019	    146.92990917	     90.80670068
      3.08333330	      1.36343702	      2.05020188	      3.73324783	     -0.00263634	      0.80259288	      0.06794226	     -0.84299089	     -5.90050700	     -8.88056931	      0.60521360	      0.01056297	      5.30533485	      2.16831517	     -7.49999987	      0.00704625	     -3.54590820	     -8.95014275	      0.81265401	      0.01418349	      1.79748596	     -0.77972177	     -7.49999987	      1.04745523	     -1.19359479	      0.01112992	     65.21416234	     18.61425522	     67.42671145	    120.80227142	    104.97615411	     44.27456231	     22.07517169	     57.13741518	    147.58810372	     91.81498763
      3.10000000	      1.36808901	      1.98749059	      3.64189654	     -0.00253774	      0.80048243	      0.06778780	     -0.86720013	     -5.86857923	     -8.85808641	      0.62134799	      0.01084457	      5.26072625	      2.06927375	     -7.49999987	     -0.07238478	     -3.58051397	     -9.17004146	      0.81870544	      0.01428911	      2.07238544	     -0.62940124	     -7.49999987	      1.24545142	     -1.23957060	      0.47387403	     65.12879272	     18.36375406	     67.35564224	    121.25453218	    105.05362256	     44.63935266	     23.08039331	     58.99622574	    148.20265946	     92.92874997
      3.11666670	      1.39954408	      1.95880496	      3.54758833	     -0.00100121	      0.80076586	      0.06790076	     -0.89577876	     -5.86799744	     -8.89507205	      0.63718350	      0.01112095	      5.33211830	      1.94569411	     -7.49999987	     -0.19983990	     -3.60397331	     -9.18787636	      0.81193760	      0.01417098	      2.19178269	     -0.73938508	     -7.49999987	      1.25439339	     -1.26667053	      0.54191462	     65.10478689	     18.42724404	     67.31910933	    121.51403944	    105.29648185	     44.93035350	     23.43840790	     59.85871302	    148.39014057	     93.10936512
      3.13333330	      1.43652983	      1.91381194	      3.41015003	     -0.00057497	      0.80165846	      0.06885231	     -0.96812479	     -5.80538438	     -8.94235374	      0.65601018	      0.01144954	      5.23766492	      1.89457455	     -7.49999987	     -0.36667073	     -3.67671149	     -9.44161806	      0.78999948	      0.01378809	      2.33588417	     -0.49277782	     -7.49999987	      1.30586917	     -1.31103561	      0.86099880	     65.08613495	     18.32595000	     67.28712187	    121.72295506	    105.86446285	     45.27008151	     23.97113212	     60.96992829	    148.55137067	     93.38777480
      3.15000000	      1.41872701	      1.90252413	      3.35261509	     -0.00053776	      0.79913245	      0.06832865	     -0.96900441	     -5.80382834	     -8.98988423	      0.70407345	      0.01228840	      5.21691646	      1.57804388	     -7.49999987	     -0.41401663	     -3.69812467	     -9.30719880	      0.82351517	      0.01437305	      2.49643321	     -0.74643207	     -7.49999987	      1.24565546	     -1.34642893	      1.07734711	     65.26503348	     18.21328605	     67.01076613	    121.90776434	    106.05171861	     45.74273119	     24.27298600	     61.30258182	    148.63258161	     93.30615759
      3.16666670	      1.40820262	      1.89299045	      3.19478503	      0.00263966	      0.80435149	      0.06957540	     -1.01474462	     -5.77220854	     -8.89561025	      0.71936040	      0.01255521	      4.98051041	      1.45603929	     -7.49999987	     -0.56657670	     -3.77718411	     -9.44278300	      0.79534767	      0.01388144	      2.45997736	     -0.55677536	     -7.49999987	      1.25488763	     -1.42222484	      0.97873173	     64.93839367	     18.31039975	     67.21374428	    121.99665501	    105.96748121	     45.51760725	     24.07672199	     62.63053796	    148.68449838	     93.53702786
      3.18333330	      1.33080651	      1.85062516	      3.11545797	      0.00143553	      0.80027497	      0.06908468	     -0.94123503	     -5.72034683	     -8.87315376	      0.71322950	      0.01244820	      5.05041629	      1.36502173	     -7.49999987	     -0.57529168	     -3.82986230	     -9.50484814	      0.82081526	      0.01432593	      2.75922339	     -0.50332481	     -7.49999987	      1.27648972	     -1.40114264	      1.13553022	     65.04326989	     18.17937994	     67.15164398	    122.15021718	    106.26944256	     45.79405545	     24.27155945	     63.25898257	    148.70085866	     94.07877856
      3.20000000	      1.26610356	      1.83432857	      3.10242539	      0.00280553	      0.80141498	      0.06884939	     -0.94295693	     -5.69876749	     -8.95533613	      0.68435407	      0.01194423	      5.00771670	      1.31662165	     -7.49999987	     -0.58693412	     -3.84618120	     -9.52257175	      0.79850336	      0.01393651	      2.76203548	     -0.54310860	     -7.49999987	      1.40934310	     -1.43025345	      1.19728307	     64.95297858	     18.08346631	     67.03097142	    122.09520029	    106.04759245	     45.80669828	     24.52729414	     64.34015220	    148.77504017	     94.75612854
      3.21666670	      1.15543003	      1.80511072	      3.10167521	      0.00477402	      0.80238959	      0.06914984	     -0.88269099	     -5.67205661	     -9.07524418	      0.70557636	      0.01231463	      4.91156906	      1.41818933	     -7.49999987	     -0.61082284	     -3.87831724	     -9.40755885	      0.74873348	      0.01306786	      3.11272963	     -0.35526059	     -7.49999987	      1.49493708	     -1.41565939	      0.89061028	     64.64389249	     18.24311539	     66.97315134	    122.04155112	    106.16837598	     45.87144982	     24.07575877	     64.12304503	    148.77025678	     94.38924006
      3.23333330	      1.13004103	      1.76791824	      3.10627230	      0.00453429	      0.80026257	      0.06932156	     -0.86051407	     -5.59956296	     -9.12225256	      0.66700568	      0.01164145	      4.82389579	      1.18867997	     -7.49999987	     -0.59599427	     -3.92074782	     -9.44202469	      0.70915520	      0.01237709	      3.29300822	     -0.35396731	     -7.49999987	      1.45186252	     -1.40098131	      0.74837908	     64.53457637	     18.26132154	     67.08063467	    122.37690995	    106.08517758	     46.06315171	     24.12477152	     64.41425238	    148.79122899	     94.88175688
